<svg width="17" height="15" viewBox="0 0 17 15" fill="none" xmlns="http://www.w3.org/2000/svg">
<path d="M11.9096 0.400024C10.5446 0.400024 9.25768 1.02785 8.39961 2.04804C7.5415 1.02785 6.25461 0.400024 4.88961 0.400024C2.47153 0.400024 0.599609 2.28331 0.599609 4.71609C0.599609 7.69794 3.25153 10.0916 7.26846 13.7796L8.39961 14.8L9.53076 13.7796C13.5476 10.0916 16.1996 7.6979 16.1996 4.71609C16.1996 2.28331 14.3277 0.400024 11.9096 0.400024ZM8.88096 12.7472L8.72275 12.8924L8.39961 13.1839L8.07651 12.8924L7.91848 12.7473C6.02781 11.0118 4.39495 9.51283 3.31551 8.17257C2.26712 6.87084 1.79961 5.80482 1.79961 4.71609C1.79961 3.85865 2.11543 3.06867 2.68892 2.49174C3.2605 1.91671 4.04203 1.60002 4.88961 1.60002C5.86963 1.60002 6.83848 2.05629 7.48123 2.82046L8.39961 3.91231L9.31795 2.82046C9.96073 2.05629 10.9295 1.60002 11.9096 1.60002C12.7572 1.60002 13.5387 1.91671 14.1103 2.4917C14.6838 3.06867 14.9996 3.85861 14.9996 4.71609C14.9996 5.80482 14.5321 6.8708 13.4838 8.1725C12.4044 9.51275 10.7716 11.0116 8.88096 12.7472Z" fill="#F50451"/>
</svg>
