<svg width="22" height="27" viewBox="0 0 22 27" fill="none" xmlns="http://www.w3.org/2000/svg">
<path d="M10.7414 0C7.89263 0 5.1605 1.13168 3.14609 3.14609C1.13168 5.1605 0 7.89263 0 10.7414C0 17.9919 9.46589 26.1822 9.86869 26.5313C10.1119 26.7394 10.4214 26.8537 10.7414 26.8537C11.0615 26.8537 11.371 26.7394 11.6142 26.5313C12.0841 26.1822 21.4829 17.9919 21.4829 10.7414C21.4829 7.89263 20.3512 5.1605 18.3368 3.14609C16.3224 1.13168 13.5902 0 10.7414 0ZM10.7414 23.6983C7.88153 21.0129 2.68536 15.226 2.68536 10.7414C2.68536 8.60483 3.53412 6.55574 5.04493 5.04493C6.55574 3.53412 8.60483 2.68536 10.7414 2.68536C12.878 2.68536 14.9271 3.53412 16.4379 5.04493C17.9487 6.55574 18.7975 8.60483 18.7975 10.7414C18.7975 15.226 13.6013 21.0264 10.7414 23.6983ZM10.7414 5.37072C9.67921 5.37072 8.64083 5.6857 7.75762 6.27585C6.87441 6.86599 6.18603 7.70478 5.77954 8.68615C5.37304 9.66752 5.26668 10.7474 5.47391 11.7892C5.68114 12.831 6.19265 13.788 6.94376 14.5391C7.69487 15.2902 8.65184 15.8017 9.69366 16.009C10.7355 16.2162 11.8153 16.1098 12.7967 15.7033C13.7781 15.2968 14.6169 14.6085 15.207 13.7252C15.7972 12.842 16.1122 11.8037 16.1122 10.7414C16.1122 9.31703 15.5463 7.95097 14.5391 6.94376C13.5319 5.93656 12.1658 5.37072 10.7414 5.37072ZM10.7414 13.4268C10.2103 13.4268 9.69113 13.2693 9.24953 12.9742C8.80792 12.6792 8.46373 12.2598 8.26049 11.7691C8.05724 11.2784 8.00406 10.7385 8.10767 10.2175C8.21129 9.69664 8.46704 9.21815 8.8426 8.8426C9.21815 8.46704 9.69664 8.21129 10.2175 8.10767C10.7385 8.00406 11.2784 8.05724 11.7691 8.26049C12.2598 8.46373 12.6792 8.80792 12.9742 9.24953C13.2693 9.69113 13.4268 10.2103 13.4268 10.7414C13.4268 11.4536 13.1439 12.1367 12.6403 12.6403C12.1367 13.1439 11.4536 13.4268 10.7414 13.4268Z" fill="#EDF0F4"/>
</svg>
